HIERARCHY
ROOT Hips
{
	OFFSET -0.001795 -0.223333 0.028219
	CHANNELS 6 Xposition Yposition Zposition Zrotation Yrotation Xrotation 
	JOINT LeftUpLeg
	{
		OFFSET 0.069520 -0.091406 -0.006815
		CHANNELS 3 Zrotation Yrotation Xrotation
		JOINT LeftLeg
		{
			OFFSET 0.034277 -0.375199 -0.004496
			CHANNELS 3 Zrotation Yrotation Xrotation
			JOINT LeftFoot
			{
				OFFSET -0.013596 -0.397961 -0.043693
				CHANNELS 3 Zrotation Yrotation Xrotation
				JOINT LeftToe
				{
					OFFSET 0.026358 -0.055791 0.119288
					CHANNELS 3 Zrotation Yrotation Xrotation
					End Site
					{
						OFFSET 0.000000 0.000000 0.000000
					}
				}
			}
		}
	}
	JOINT RightUpLeg
	{
		OFFSET -0.067670 -0.090522 -0.004320
		CHANNELS 3 Zrotation Yrotation Xrotation
		JOINT RightLeg
		{
			OFFSET -0.038290 -0.382569 -0.008850
			CHANNELS 3 Zrotation Yrotation Xrotation
			JOINT RightFoot
			{
				OFFSET 0.015774 -0.398415 -0.042312
				CHANNELS 3 Zrotation Yrotation Xrotation
				JOINT RightToe
				{
					OFFSET -0.025372 -0.048144 0.123348
					CHANNELS 3 Zrotation Yrotation Xrotation
					End Site
					{
						OFFSET 0.000000 0.000000 0.000000
					}
				}
			}
		}
	}
	JOINT Spine
	{
		OFFSET -0.002533 0.108963 -0.026696
		CHANNELS 3 Zrotation Yrotation Xrotation
		JOINT Spine1
		{
			OFFSET 0.005487 0.135180 0.001092
			CHANNELS 3 Zrotation Yrotation Xrotation
			JOINT Spine2
			{
				OFFSET 0.001457 0.052922 0.025425
				CHANNELS 3 Zrotation Yrotation Xrotation
				JOINT Neck
				{
					OFFSET -0.002778 0.213870 -0.042857
					CHANNELS 3 Zrotation Yrotation Xrotation
					JOINT Head
					{
						OFFSET 0.005152 0.064970 0.051349
						CHANNELS 3 Zrotation Yrotation Xrotation
						End Site
						{
							OFFSET 0.000000 0.000000 0.000000
						}
					}
				}
				JOINT LeftShoulder
				{
					OFFSET 0.078845 0.121749 -0.034090
					CHANNELS 3 Zrotation Yrotation Xrotation
					JOINT LeftArm
					{
						OFFSET 0.090977 0.030469 -0.008868
						CHANNELS 3 Zrotation Yrotation Xrotation
						JOINT LeftForeArm
						{
							OFFSET 0.259612 -0.012772 -0.027456
							CHANNELS 3 Zrotation Yrotation Xrotation
							JOINT LeftHand
							{
								OFFSET 0.249234 0.008986 -0.001171
								CHANNELS 3 Zrotation Yrotation Xrotation
								End Site
								{
									OFFSET 0.000000 0.000000 0.000000
								}
							}
						}
					}
				}
				JOINT RightShoulder
				{
					OFFSET -0.081759 0.118833 -0.038615
					CHANNELS 3 Zrotation Yrotation Xrotation
					JOINT RightArm
					{
						OFFSET -0.096012 0.032551 -0.009143
						CHANNELS 3 Zrotation Yrotation Xrotation
						JOINT RightForeArm
						{
							OFFSET -0.253742 -0.013329 -0.021401
							CHANNELS 3 Zrotation Yrotation Xrotation
							JOINT RightHand
							{
								OFFSET -0.255298 0.007772 -0.005559
								CHANNELS 3 Zrotation Yrotation Xrotation
								End Site
								{
									OFFSET 0.000000 0.000000 0.000000
								}
							}
						}
					}
				}
			}
		}
	}
}
MOTION
Frames: 16
Frame Time: 0.050000
0.007277 0.953442 0.029654 0.686766 -16.205949 23.970155 5.499954 -0.141949 -28.146115 0.856782 -0.149745 1.606194 -5.255859 -5.200601 15.017136 0.000000 0.000000 0.000000 -1.209688 2.605959 -21.999557 -9.063242 -0.403244 -10.893180 -5.078984 -19.690844 31.968665 0.000000 0.000000 0.000000 -2.301401 0.289965 16.828914 -0.156841 0.240430 0.732206 -6.901663 15.474627 -3.278083 24.606671 -15.510818 -8.915598 0.000000 0.000000 0.000000 -3.936676 -17.790837 5.528286 -40.533114 -24.354014 3.704575 -42.455506 -67.628684 29.216984 0.000000 0.000000 0.000000 -8.712710 14.393180 4.861253 73.068045 20.668468 10.700782 -10.465497 42.595123 -1.726650 0.000000 0.000000 0.000000 
0.007481 0.955182 0.027824 0.734485 -15.908095 24.078014 5.336284 -0.203267 -28.213860 1.140119 -0.176545 1.176807 -5.524273 -5.343414 15.686280 0.000000 0.000000 0.000000 -1.412591 2.603259 -22.156038 -9.108070 -0.429963 -11.182347 -4.661033 -19.262465 33.362637 0.000000 0.000000 0.000000 -1.929006 0.223913 18.037129 0.152481 0.077538 -0.160867 -6.299979 15.852487 -2.753557 24.850434 -15.134766 -10.219031 0.000000 0.000000 0.000000 -2.372917 -19.802378 6.330599 -39.828259 -30.099885 5.272534 -25.975136 -69.690657 18.542306 0.000000 0.000000 0.000000 -8.962693 17.217580 5.777928 71.221111 26.621831 14.346218 -15.405006 32.384278 -2.656742 0.000000 0.000000 0.000000 
0.008039 0.956275 0.025205 1.326041 -15.472945 24.633425 4.869539 -0.332489 -29.038309 1.292393 -0.189500 0.956172 -6.322663 -6.317520 16.191012 0.000000 0.000000 0.000000 -2.018028 2.597297 -22.615884 -9.241247 -0.500690 -11.885777 -4.966435 -19.557675 34.298056 0.000000 0.000000 0.000000 -1.828189 0.218612 18.947271 0.798591 -0.212338 -0.834843 -5.973566 16.347300 -2.292167 25.624834 -15.152507 -11.421827 0.000000 0.000000 0.000000 1.222909 -22.775555 7.400161 -39.076827 -38.278286 7.376380 -0.680219 -68.217247 0.975096 0.000000 0.000000 0.000000 -10.659035 20.565980 6.615311 69.485456 32.762705 18.260841 -18.895582 22.353506 -2.381184 0.000000 0.000000 0.000000 
0.008777 0.958225 0.022151 1.795916 -15.122867 25.107775 4.597020 -0.394335 -30.219093 1.407954 -0.225360 1.577455 -7.293074 -7.515427 16.735628 0.000000 0.000000 0.000000 -2.499241 2.627213 -23.253069 -9.255929 -0.533701 -12.160799 -5.481885 -20.099353 35.330562 0.000000 0.000000 0.000000 -1.423385 0.154828 20.836937 0.928346 -0.269954 -1.399829 -5.701138 16.857813 -2.643357 25.135477 -15.843038 -9.005288 0.000000 0.000000 0.000000 3.368336 -26.416899 8.555955 -34.576008 -47.436299 8.494607 15.334553 -58.767182 -7.828813 0.000000 0.000000 0.000000 -11.829915 23.994740 7.587654 65.361680 38.486768 20.696915 -17.801889 12.826335 -1.114785 0.000000 0.000000 0.000000 
0.009543 0.957371 0.019229 2.335600 -14.626865 25.334673 4.482398 -0.445997 -31.154206 1.472812 -0.253997 2.172986 -8.691975 -9.566677 16.721813 0.000000 0.000000 0.000000 -3.311809 2.642199 -24.117872 -9.176592 -0.474086 -11.403793 -5.697128 -20.246551 35.187264 0.000000 0.000000 0.000000 -0.952380 0.044798 22.508469 1.344923 -0.447388 -2.201790 -5.132204 17.215410 -2.065326 25.575352 -16.003026 -9.427089 0.000000 0.000000 0.000000 6.387107 -29.122839 9.265168 -29.304679 -56.336198 8.197563 21.168671 -45.913037 -7.972345 0.000000 0.000000 0.000000 -14.148448 27.477375 8.181968 61.791835 43.325971 22.459101 -16.457555 5.469432 -0.210485 0.000000 0.000000 0.000000 
0.010048 0.955330 0.017300 2.579387 -14.604079 25.666266 4.310144 -0.454189 -32.236672 2.095964 -0.364163 2.805225 -9.970313 -11.289079 17.132131 0.000000 0.000000 0.000000 -4.187130 2.617387 -24.608771 -8.548416 -0.407632 -10.632531 -4.801823 -19.048164 32.400065 0.000000 0.000000 0.000000 -0.631201 -0.036133 23.174399 1.117720 -0.345891 -0.764462 -4.833591 17.198322 -3.254553 25.568836 -16.050104 -9.071444 0.000000 0.000000 0.000000 7.630272 -31.676133 9.961217 -21.219982 -59.543381 4.823364 21.988600 -36.251841 -6.196285 0.000000 0.000000 0.000000 -16.441200 30.866934 8.723230 57.835550 46.231606 22.503873 -13.119588 1.338781 0.183254 0.000000 0.000000 0.000000 
0.010355 0.952875 0.016760 2.741180 -14.603475 25.627996 4.337365 -0.439096 -32.627629 2.352727 -0.431633 3.620411 -10.690889 -12.842017 16.198716 0.000000 0.000000 0.000000 -4.415147 2.634345 -24.959578 -8.119594 -0.298068 -9.377550 -5.336822 -19.469807 29.514622 0.000000 0.000000 0.000000 -0.327454 -0.110626 23.980684 0.455375 -0.067996 -0.710900 -3.862507 17.301072 -3.096446 25.564010 -16.259282 -8.638443 0.000000 0.000000 0.000000 6.795404 -31.499615 9.994303 -20.369728 -60.090955 4.564077 20.979318 -38.165501 -6.139128 0.000000 0.000000 0.000000 -14.710737 32.904756 9.921246 53.357111 46.301332 20.085660 -11.351877 -0.227405 0.277188 0.000000 0.000000 0.000000 
0.010423 0.951309 0.017553 3.099817 -14.336037 25.620624 3.764111 -0.609188 -32.932440 2.649657 -0.468726 3.423913 -11.025561 -12.840899 17.109229 0.000000 0.000000 0.000000 -5.264709 2.558787 -25.194341 -7.458233 -0.208108 -8.226470 -5.221760 -19.050703 27.203990 0.000000 0.000000 0.000000 0.081014 -0.271267 23.335590 -0.065750 0.155935 -0.420801 -2.806884 16.926273 -2.578349 24.365334 -14.619701 -10.305740 0.000000 0.000000 0.000000 5.006982 -29.546221 9.540508 -22.572910 -56.477169 5.374983 22.728997 -50.497404 -9.434954 0.000000 0.000000 0.000000 -13.461369 33.164658 10.337900 53.268937 43.185036 17.968042 -10.629768 2.096108 0.086569 0.000000 0.000000 0.000000 
0.010446 0.951371 0.020052 2.822613 -13.934942 25.371462 3.451465 -0.740819 -32.322617 3.316024 -0.545637 2.999345 -10.690888 -12.322784 17.072657 0.000000 0.000000 0.000000 -4.961370 2.512880 -24.680755 -7.797383 -0.187379 -8.090291 -4.550617 -18.121042 27.250923 0.000000 0.000000 0.000000 0.235620 -0.351990 22.738654 -0.294464 0.249881 -0.360678 -1.742492 16.576765 -1.942467 22.298545 -12.774876 -11.355662 0.000000 0.000000 0.000000 3.387665 -25.387653 8.290465 -30.331749 -49.124870 7.379480 28.390472 -71.857267 -19.398845 0.000000 0.000000 0.000000 -12.032952 30.160063 9.635326 56.878478 37.906589 16.295581 -10.327840 8.408829 -0.312915 0.000000 0.000000 0.000000 
0.010356 0.952836 0.023758 2.693421 -14.006460 24.563819 3.368702 -0.798496 -30.427808 2.952884 -0.451297 2.048694 -9.503949 -10.948136 16.255333 0.000000 0.000000 0.000000 -5.232115 2.343131 -23.409202 -7.151446 -0.233361 -8.532392 -4.151880 -17.630301 27.803454 0.000000 0.000000 0.000000 0.806018 -0.524738 21.533816 -0.737235 0.426488 -0.801168 -1.224430 15.935033 -0.580822 20.702406 -12.181901 -10.377132 0.000000 0.000000 0.000000 0.776160 -20.695114 6.783307 -35.680843 -39.915012 6.907257 -172.099979 -85.308663 173.001100 0.000000 0.000000 0.000000 -9.313762 26.058774 8.787904 58.301270 30.737501 12.311307 -6.433395 16.490514 -0.280279 0.000000 0.000000 0.000000 
0.010307 0.953294 0.027667 1.992126 -14.902068 24.264415 4.005322 -0.591425 -29.336658 1.842096 -0.271968 1.254737 -7.488304 -7.789317 16.707014 0.000000 0.000000 0.000000 -5.353658 2.335198 -23.054898 -6.740362 -0.247881 -8.651589 -1.976540 -15.161148 28.910161 0.000000 0.000000 0.000000 0.985354 -0.542951 20.649945 -1.445031 0.740478 -0.698205 -0.349500 15.281859 -0.824741 18.882353 -10.928351 -10.424310 0.000000 0.000000 0.000000 -1.109255 -15.798538 5.087181 -40.307470 -28.571987 4.699656 -158.074887 -64.066326 147.959688 0.000000 0.000000 0.000000 -8.618062 22.060833 7.484805 60.423520 24.443080 9.196482 -1.709749 22.748171 0.500199 0.000000 0.000000 0.000000 
0.010284 0.953427 0.030194 1.650756 -14.964581 24.048395 4.020732 -0.603103 -28.443649 0.713441 -0.090443 0.192457 -4.841333 -3.672171 17.020065 0.000000 0.000000 0.000000 -5.558950 2.254685 -22.426556 -6.277589 -0.261599 -8.779652 -0.748218 -13.489168 28.578052 0.000000 0.000000 0.000000 1.167236 -0.597796 18.978181 -1.334557 0.701953 -0.467838 -0.301306 15.822895 -0.145290 18.365768 -9.901211 -12.592899 0.000000 0.000000 0.000000 -1.112940 -12.785260 3.977249 -43.633086 -21.528720 2.666571 -155.890194 -51.557617 134.436213 0.000000 0.000000 0.000000 -8.023156 18.741007 6.402141 61.060469 19.362955 6.502320 2.484161 28.895256 1.802209 0.000000 0.000000 0.000000 
0.010094 0.952547 0.030603 1.162475 -14.473386 23.961560 4.668698 -0.490249 -28.476755 -0.611828 0.078833 0.159372 -3.100981 -0.891836 17.269764 0.000000 0.000000 0.000000 -5.470238 2.253297 -22.516295 -6.263915 -0.196654 -7.907869 0.670453 -11.428592 28.186200 0.000000 0.000000 0.000000 1.910106 -0.797724 17.832571 -1.470866 0.746602 -0.808702 -0.744282 16.994614 -0.390266 19.546808 -10.511855 -12.947886 0.000000 0.000000 0.000000 -1.646645 -13.546332 4.100355 -46.100004 -19.435796 2.094640 -154.181980 -50.464623 128.635808 0.000000 0.000000 0.000000 -6.558390 17.726963 6.303532 59.687770 17.428217 5.352922 4.253688 29.318001 2.330914 0.000000 0.000000 0.000000 
0.009883 0.951156 0.029020 1.190534 -13.384809 23.416851 4.856929 -0.538016 -28.392834 -2.008242 0.257657 0.177231 -1.585419 1.617118 17.413992 0.000000 0.000000 0.000000 -5.041807 2.193082 -22.090817 -6.769755 -0.126448 -7.202817 0.209311 -11.628937 27.250986 0.000000 0.000000 0.000000 2.183652 -0.881637 17.056387 -1.265555 0.685705 0.254310 -2.152307 17.785671 -2.141208 19.408327 -10.250410 -13.063659 0.000000 0.000000 0.000000 -3.350000 -16.169411 4.732523 -46.124702 -23.088038 3.662879 -152.494984 -61.032580 133.513826 0.000000 0.000000 0.000000 -5.346954 19.520292 7.260193 57.904443 18.566784 5.854249 -0.573287 26.198728 0.992711 0.000000 0.000000 0.000000 
0.009709 0.950151 0.026684 1.721248 -12.344179 22.356618 5.142107 -0.574998 -27.733667 -3.332033 0.428378 0.248373 -2.095554 0.987140 17.292072 0.000000 0.000000 0.000000 -5.500292 2.013700 -21.198541 -6.877374 -0.039255 -6.303886 0.192116 -10.981355 25.534602 0.000000 0.000000 0.000000 2.075396 -0.862366 16.321990 -1.281741 0.690627 0.567974 -3.581952 18.713945 -3.422558 21.136680 -11.142571 -13.479172 0.000000 0.000000 0.000000 -5.684458 -21.439846 6.345913 -43.632203 -31.235499 6.522832 -120.049360 -81.198490 110.106663 0.000000 0.000000 0.000000 -2.907153 21.986314 8.935880 53.595570 22.417615 6.893051 -3.792100 19.732144 0.165529 0.000000 0.000000 0.000000 
0.009779 0.949097 0.025546 2.038821 -12.079869 21.046573 5.075847 -0.623325 -26.898914 -3.839927 0.502137 0.941536 -2.180494 0.768464 16.783614 0.000000 0.000000 0.000000 -5.632602 1.910739 -20.489944 -7.504321 0.076550 -5.376594 0.779588 -10.052735 25.403961 0.000000 0.000000 0.000000 2.253011 -0.869954 15.294782 -2.066293 1.068589 1.387965 -5.051904 18.263192 -5.311593 22.090599 -12.221575 -12.214865 0.000000 0.000000 0.000000 -7.502952 -25.156892 7.730170 -42.703021 -34.424855 7.819260 -17.136015 -72.286955 11.311071 0.000000 0.000000 0.000000 -1.825348 24.853850 10.446117 51.809726 24.893282 7.656438 -5.957616 15.082142 -0.149563 0.000000 0.000000 0.000000 
